<svg version="1.2" xmlns="http://www.w3.org/2000/svg" viewBox="0 0 1576 280" width="1576" height="280">
	<title>bio-techne-logo-ai</title>
	<style>
		.s0 { fill: #005f9e } 
	</style>
	<g id="Layer 1">
		<g id="Layer 1 1 ">
			<path id="&lt;Compound Path&gt;" fill-rule="evenodd" class="s0" d="m45.7 275h-44.7v-274.1h44.8v103.2q12.7-22.2 25.5-29.3c9.2-4.8 19.4-7.2 29.8-7q32.6 0 54 27.6 21.3 27.7 21.3 76.6 0 44.3-21.1 75.7-21 31.4-60.5 31.4c-10.1 0-20.2-2-29.5-6.1-7.4-3.5-14-8.3-19.6-14.2zm0-84.5q0 26.5 11.3 39.1c7.6 8.4 18.4 13 29.7 12.7 11.6 0.1 22.6-5.3 29.7-14.5q11.9-14.6 12.7-56.9 0-31-10.8-47.7c-6.3-10.8-18-17.2-30.4-16.8-11.8-0.2-23 5-30.4 14.2q-12 14.3-12 40.4zm449.3 0.5h-41.5c-2.6 24.1-11.5 44-26.9 59.6q-27.9 28.1-70.5 28.1-45.9 0-70.1-31.2c-16-20.3-24.5-45.5-24.2-71.3q0-43.3 26.8-72.1 26.7-28.7 70.6-28.7 41.6 0 68.4 27.9c13.4 14.1 22.1 31.9 25 51.1h42.4zm-137.2 51.3q41.6 0 46.5-51.3h-49.4l6.1-36.7h41.9c-1.4-9-4.5-17.7-9.3-25.5q-11.2-17.3-34.6-17.3-24.3 0-35.9 17.9-11.7 17.9-11.7 47.4 0 31.9 12.3 48.7c7.8 11 20.6 17.3 34.1 16.8zm-160.4-145.9h44.8v178.5h-44.8z"/>
			<path id="&lt;Path&gt;" fill-rule="evenodd" class="s0" d="m600.3 239.7v34.9c-10.2 2.4-20.6 3.9-31 4.3-10.8 0.3-21.5-2.2-31-7.2-8.3-4.3-14.9-11.2-18.9-19.6q-6-12.4-6.1-38.3v-102.5h-30.7v-34.7h33.3l4.1-51.6 36.7-3.3v54.9h39.7v34.7h-39.7v96.6q0 18.6 6.8 25.4 6.8 6.7 25.5 6.8c3.6 0.1 7.4-0.2 11.3-0.4zm142.5-28.3l40.4 5.5c-5.1 17.7-15.8 33.3-30.6 44.3q-22.7 17.5-57.1 17.5-41.2 0-66.3-27.7-25.1-27.6-25.1-74.8 0-45 25.3-74.3 25.3-29.4 68.7-29.4 42.4 0 65.5 29 23.1 29 23.2 74.5l-0.2 5.1h-135.9c-0.3 10.9 1 21.8 3.8 32.3 2.8 8.4 8.1 15.8 15.2 21.1 8.2 6.2 18.2 9.4 28.4 9q33.4 0.1 44.7-32.1zm-2.8-59.2q-0.2-21.4-12.9-34.9c-16.5-17.3-43.9-18.1-61.3-1.6q-0.4 0.4-0.8 0.8-12.2 12.6-14.3 35.8zm187.3 49.5l38.5 4q-7.5 37.3-28.9 55.1c-14.5 12-32.8 18.3-51.6 17.8q-41 0-63-30-22-30-22.1-73.2 0-44.7 24.2-73.9 24.1-29.2 64.3-29.2 64.8 0 77.1 68.1l-38.5 5.5q-5.1-36.9-36.3-36.9c-14-0.7-27.1 7.2-33 19.9q-10.3 19.8-10.3 48.2 0 30 10.7 46.3c6.3 10.4 17.7 16.6 29.9 16.2q29.4 0 39-37.9zm220.2 73.2h-44.8v-129.6q0-21-8.9-29.5c-5.5-5.5-13.1-8.6-20.9-8.5-12.4-0.2-24.2 5.4-32 15.1q-13 15.1-13 49.8v102.7h-44.7v-267.6h44.8v104.3q16.7-42.7 58.5-42.7 61 0 61 69.9zm188 0h-44.8v-123.7q0-19.6-9.1-29.5c-5.4-6.3-13.4-9.9-21.7-9.9q-17.5 0-30.7 15.3-13.1 15.3-13.1 46.1v101.7h-44.7v-198h40.9v45.9q21.4-50 60-50c16.4-0.3 32.4 5.6 44.7 16.5q18.5 16.5 18.5 57.8zm155.3-63.5l40.4 5.5c-5 17.7-15.8 33.3-30.5 44.3q-22.7 17.5-57.1 17.5-41.3 0-66.3-27.7-25.1-27.6-25.2-74.9 0-44.9 25.4-74.3 25.3-29.3 68.6-29.4 42.4 0 65.6 29 23.1 29.1 23.1 74.5l-0.2 5.1h-136.1c-0.3 11 1 21.8 3.8 32.4 2.9 8.4 8.2 15.8 15.3 21.1 8.2 6.2 18.2 9.4 28.4 9q33.3 0.1 44.8-32.1zm-2.8-59.2c0.3-12.8-4.2-25.3-12.8-34.9-16.5-17.3-44-18.1-61.4-1.6q-0.4 0.4-0.8 0.8-12.2 12.6-14.5 35.8zm-1244.7-97.2c0 12.8-10.4 23.3-23.3 23.3-12.9 0-23.4-10.5-23.4-23.3 0-12.9 10.4-23.4 23.4-23.4q0 0 0 0c12.8 0 23.3 10.5 23.3 23.4zm1308.7 17.4c12.8 0 23.1 10.5 23 23.3 0 12.8-10.5 23.1-23.3 23-12.8-0.1-23.1-10.5-23-23.2-0.1-12.7 10.1-23.1 22.8-23.1q0.3 0 0.5 0zm0 3.6c-10.8-0.5-20 7.9-20.4 18.7-0.5 10.8 7.9 20 18.8 20.4 10.8 0.5 19.9-7.9 20.4-18.7q0-0.5 0-0.9c0.2-10.6-8.2-19.3-18.8-19.5q-0.1 0-0.1 0zm-4.4 32.9h-4.3v-25.7q3.7-0.6 7.4-0.7c2.9-0.1 5.7 0.5 8.2 2 1.6 1.2 2.5 3.3 2.3 5.3 0 3.1-2.1 5.7-5.1 6.3v0.2c2.3 0.4 3.9 2.5 4.4 6.3 0.3 2.2 0.8 4.3 1.7 6.3h-4.4c-1-2-1.6-4.2-1.8-6.5-0.1-2.7-2.4-4.8-5.1-4.6q-0.3 0-0.5 0.1h-2.9zm0-14.2h3c3.5 0 6.4-1.2 6.4-4.4 0-2.3-1.6-4.6-6.4-4.6q-1.5 0.1-3 0.2z"/>
		</g>
	</g>
</svg>